<svg width="28" height="32" viewBox="0 0 28 32" fill="none" xmlns="http://www.w3.org/2000/svg">
<path fill-rule="evenodd" clip-rule="evenodd" d="M2.01795 0C1.16592 0 0.475098 0.682244 0.475098 1.52381V9.14284C0.475098 9.9844 1.16592 10.6666 2.01795 10.6666H9.73223C10.5843 10.6666 11.5764 10.6666 11.5764 10.6666H13.3584C13.8584 10.6666 14.5957 10.6666 15.3584 10.6666H16.6751C22.6397 10.6666 27.4656 10.6666 27.4739 10C27.5979 0.000673294 27.4813 0 27.2855 0H2.01795ZM2.01796 21.3334C1.16586 21.3334 0.475103 22.0156 0.475103 22.8572V30.4762C0.475103 31.3178 1.16586 32 2.01796 32H9.73223C10.5843 32 11.2751 31.3178 11.2751 30.4762V22.8572C11.2751 21.3334 11.2751 21.3334 9.73223 21.3334H2.01796Z" fill="#4B2DBB"/>
<path fill-rule="evenodd" clip-rule="evenodd" d="M2.01795 0C1.16592 0 0.475098 0.682244 0.475098 1.52381V9.14284C0.475098 9.9844 1.16592 10.6666 2.01795 10.6666H9.73223C10.5843 10.6666 11.5764 10.6666 11.5764 10.6666H13.3584C13.8584 10.6666 14.5957 10.6666 15.3584 10.6666H16.6751C22.6397 10.6666 27.4656 10.6666 27.4739 10C27.5979 0.000673294 27.4813 0 27.2855 0H2.01795ZM2.01796 21.3334C1.16586 21.3334 0.475103 22.0156 0.475103 22.8572V30.4762C0.475103 31.3178 1.16586 32 2.01796 32H9.73223C10.5843 32 11.2751 31.3178 11.2751 30.4762V22.8572C11.2751 21.3334 11.2751 21.3334 9.73223 21.3334H2.01796Z" fill="#4B2DBB"/>
</svg>
